Coordinates
version=1
nRows=22
nColumns=24
inDegrees=yes

Units are S.I. units (second, meters, Newtons, ...)
Angles are in degrees.

endheader
time	pelvis_tilt	pelvis_list	pelvis_rotation	pelvis_tx	pelvis_ty	pelvis_tz	hip_flexion_r	hip_adduction_r	hip_rotation_r	knee_angle_r	ankle_angle_r	subtalar_angle_r	mtp_angle_r	hip_flexion_l	hip_adduction_l	hip_rotation_l	knee_angle_l	ankle_angle_l	subtalar_angle_l	mtp_angle_l	lumbar_extension	lumbar_bending	lumbar_rotation
      4.27000000	    -17.24142759	     11.03877173	     -6.18484500	     -0.97134542	     -0.03284267	     -0.28775210	     23.98564663	     -8.59289445	      3.34643192	    -65.85861047	    -37.36100361	    -16.08732193	      7.42671304	     38.16512342	     14.49661837	      3.71465623	    -21.89752275	     14.74181390	     10.01261986	    -72.62996288	     15.41958740	     -9.27845294	      8.70952601
      4.27500000	    -17.19006290	     11.04472036	     -6.13351423	     -0.96470543	     -0.03162224	     -0.28799969	     25.05301927	     -8.19230406	      3.78278853	    -67.01479190	    -35.58502876	    -17.46662186	      5.23614862	     37.35783731	     14.56452024	      3.54597763	    -21.47429285	     15.28563143	     10.55750190	    -72.93223178	     15.35063366	     -9.26354383	      8.55093040
      4.28000000	    -17.11627948	     11.03598286	     -6.09064451	     -0.95809225	     -0.03036298	     -0.28821445	     26.08313423	     -7.77022773	      4.21589407	    -68.06752416	    -33.85937355	    -18.69130430	      3.00803195	     36.50551859	     14.62086537	      3.44295974	    -21.02049404	     15.80569328	     11.08828766	    -73.17830463	     15.25614668	     -9.24292532	      8.39782593
      4.28500000	    -17.01478243	     11.08085913	     -6.09929161	     -0.95143241	     -0.02900650	     -0.28848834	     27.05295438	     -7.39707793	      4.77414419	    -68.90743196	    -32.63820284	    -19.96570234	      2.67061955	     35.56464701	     14.73203446	      3.42508249	    -20.42658578	     16.14253657	     11.39739701	    -73.18729314	     15.15679030	     -9.24556788	      8.30642993
      4.29000000	    -16.96835854	     10.94137838	     -5.97250459	     -0.94486383	     -0.02774712	     -0.28865751	     28.05181124	     -6.87254173	      4.96184411	    -69.84417033	    -30.40142772	    -20.63869750	     -2.01018800	     34.73293869	     14.68372941	      3.35052094	    -20.02011242	     16.71994429	     12.06839010	    -73.61099621	     15.06172269	     -9.12976382	      8.06065624
      4.29500000	    -16.75736371	     10.88512825	     -5.93914647	     -0.93814849	     -0.02619276	     -0.28888047	     28.83018302	     -6.45478887	      5.31374638	    -70.53367661	    -28.71533005	    -21.30217904	     -4.37655132	     33.60313042	     14.74265707	      3.49543340	    -19.35377338	     17.04036632	     12.34084963	    -73.80443053	     14.83548659	     -9.07544486	      7.91284445
      4.30000000	    -16.76665382	     10.76789950	     -5.87408562	     -0.93161437	     -0.02494242	     -0.28902787	     29.85756113	     -5.94257873	      5.58529357	    -71.17925699	    -27.09399548	    -21.94762776	     -7.17969092	     32.78727963	     14.68072972	      3.44649991	    -18.83176027	     17.43504592	     12.83014913	    -74.00209953	     14.82184862	     -8.95124093	      7.76363258
      4.30500000	    -16.73440398	     10.64176105	     -5.76868026	     -0.92503100	     -0.02360436	     -0.28938780	     30.75981324	     -5.49765679	      5.87513009	    -71.58820305	    -26.13203401	    -22.65139172	     -7.08410514	     31.86556719	     14.67417292	      3.62040357	    -18.20915650	     17.68985823	     13.11916278	    -73.97970280	     14.76391804	     -8.81760406	      7.55788825
      4.31000000	    -16.53542600	     10.48599283	     -5.68744728	     -0.91843200	     -0.02204582	     -0.28949127	     31.49470556	     -5.04566785	      5.96089152	    -72.06824640	    -23.95935764	    -22.69882146	    -11.56862233	     30.72076105	     14.63676184	      3.82707092	    -17.51286048	     17.96153140	     13.34270061	    -74.40892703	     14.52434446	     -8.70429608	      7.36390087
      4.31500000	    -16.46449203	     10.27745623	     -5.59650321	     -0.91193361	     -0.02062788	     -0.28975694	     32.29480190	     -4.54631997	      6.16792593	    -72.27264756	    -22.91344777	    -23.05074401	    -11.48121267	     29.73801757	     14.53597243	      4.00636447	    -16.86135302	     18.16745259	     13.57988729	    -74.39612414	     14.40857771	     -8.50216920	      7.15644229
      4.32000000	    -16.39810193	     10.03633708	     -5.47814868	     -0.90545446	     -0.01921472	     -0.29000967	     33.06604308	     -4.04999826	      6.30123607	    -72.38139825	    -21.79802458	    -23.24168918	    -11.40670006	     28.74395634	     14.41022592	      4.25417385	    -16.18926488	     18.34417976	     13.78118903	    -74.40994950	     14.29175303	     -8.28307778	      6.92332632
      4.32500000	    -16.31707017	      9.79340379	     -5.32105783	     -0.89901730	     -0.01779386	     -0.29025778	     33.79588083	     -3.59857114	      6.36944494	    -72.40339012	    -20.59428964	    -23.25819650	    -11.32109208	     27.71584188	     14.29583519	      4.58003047	    -15.47444157	     18.44507169	     13.92465502	    -74.46698924	     14.15026697	     -8.08657474	      6.62812075
      4.33000000	    -16.28295338	      9.48438752	     -5.16265187	     -0.89263994	     -0.01644244	     -0.29048763	     34.53939923	     -3.08842160	      6.38808287	    -72.30756226	    -19.41613513	    -23.20569447	    -11.07131969	     26.75249230	     14.10232783	      4.91716294	    -14.79766680	     18.58139188	     14.05313244	    -74.51850350	     14.04594390	     -7.81834897	      6.34770735
      4.33500000	    -16.23616727	      9.17117574	     -5.00458705	     -0.88628382	     -0.01512187	     -0.29070326	     35.24318837	     -2.59753630	      6.39397249	    -72.11122422	    -18.23707363	    -23.02593928	    -10.47730196	     25.75163586	     13.90713356	      5.39222296	    -14.07169160	     18.68071967	     14.03730080	    -74.61935735	     13.93076231	     -7.55452284	      6.09883989
      4.34000000	    -16.19247625	      8.84063828	     -4.85771117	     -0.87994759	     -0.01379604	     -0.29097739	     35.90612311	     -2.10306640	      6.44604629	    -71.76170962	    -17.27798595	    -22.76564693	     -8.71346875	     24.72860036	     13.69742122	      5.96613973	    -13.28225027	     18.67474277	     13.81409530	    -74.79534803	     13.81787994	     -7.25799597	      5.81793126
      4.34500000	    -16.25535675	      8.39346026	     -4.54354341	     -0.87373339	     -0.01267648	     -0.29123076	     36.63204299	     -1.58092853	      6.24198819	    -71.33622589	    -16.17345940	    -22.44193241	     -7.80814800	     23.95264533	     13.36684142	      6.23707479	    -12.77749968	     18.90245151	     14.20126098	    -74.78827658	     13.77440628	     -6.90807849	      5.32157057
      4.35000000	    -16.32319461	      7.99228162	     -4.33091193	     -0.86758947	     -0.01155708	     -0.29168152	     37.31084992	     -1.08100965	      6.33482820	    -70.58872891	    -16.34917714	    -22.67638609	     -1.77471846	     23.05931561	     13.09921135	      7.11704529	    -11.99581554	     18.83872314	     13.74758552	    -74.91612083	     13.74730871	     -6.53941389	      4.97716639
      4.35500000	    -16.35204993	      7.58933695	     -4.09123865	     -0.86142769	     -0.01055791	     -0.29178579	     37.97693524	     -0.58617287	      6.22163967	    -70.00345659	    -15.16744188	    -22.06303301	     -0.93187555	     22.28355918	     12.76068858	      7.20525161	    -11.49974207	     19.06242824	     14.18110104	    -74.87869201	     13.68146473	     -6.23005467	      4.62714378
      4.36000000	    -16.43733384	      7.17538459	     -3.83341012	     -0.85536842	     -0.00962097	     -0.29214226	     38.63464167	     -0.12159681	      6.21697357	    -69.12086051	    -15.00653996	    -22.04427525	      3.67725209	     21.47770876	     12.45349472	      7.92617278	    -10.81830854	     19.04332327	     13.92665300	    -74.89018861	     13.66077670	     -5.88281178	      4.25153576
      4.36500000	    -16.49268427	      6.76384647	     -3.53496430	     -0.84927165	     -0.00879825	     -0.29229118	     39.27366485	      0.31458085	      6.04879334	    -68.35682059	    -13.91362646	    -21.36886035	      4.42608155	     20.75201715	     12.11158403	      8.09271949	    -10.33989250	     19.25057031	     14.32350968	    -74.86732583	     13.61378476	     -5.58521774	      3.83689159
      4.37000000	    -16.57755091	      6.37363496	     -3.24572485	     -0.84324342	     -0.00805017	     -0.29262158	     39.89581789	      0.70266735	      5.99478218	    -67.35101456	    -13.60041994	    -21.18678884	      8.05221127	     19.97368747	     11.81466895	      8.78955302	     -9.68058996	     19.25525556	     14.08910506	    -74.94890923	     13.59228081	     -5.28274431	      3.44586135
      4.37500000	    -16.64790045	      5.97782584	     -2.90553559	     -0.83718789	     -0.00742210	     -0.29279911	     40.50169928	      1.06484221	      5.80630305	    -66.42976761	    -12.62596430	    -20.49765304	      8.69987192	     19.28913540	     11.48565000	      8.96215807	     -9.21746632	     19.45628452	     14.49151838	    -74.93440839	     13.55739213	     -5.01730909	      3.00526245
